<svg xmlns="http://www.w3.org/2000/svg" width="32" height="33" fill="none"><path fill="#F00073" d="M0 16.75c0 8.837 7.163 16 16 16s16-7.163 16-16-7.163-16-16-16-16 7.164-16 16"></path><path fill="#fff" d="M16 9.95h3.4c.8 0 1.2.2 1.5.3.4.2.7.3 1 .6s.5.6.6 1c.1.3.2.7.3 1.5v6.8c0 .8-.2 1.2-.3 1.5-.2.4-.3.7-.6 1s-.6.5-1 .6c-.3.1-.7.2-1.5.3h-6.8c-.8 0-1.2-.2-1.5-.3-.4-.2-.7-.3-1-.6s-.5-.6-.6-1c-.1-.3-.2-.7-.3-1.5v-6.8c0-.8.2-1.2.3-1.5.2-.4.3-.7.6-1s.6-.5 1-.6c.3-.1.7-.2 1.5-.3zm0-1.5h-3.4c-.9 0-1.5.2-2 .4s-1 .5-1.5 1-.7.9-1 1.5c-.2.5-.3 1.1-.4 2v6.8c0 .9.2 1.5.4 2s.5 1 1 1.5.9.7 1.5 1c.5.2 1.1.3 2 .4h6.8c.9 0 1.5-.2 2-.4s1-.5 1.5-1 .7-.9 1-1.5c.2-.5.3-1.1.4-2v-6.8c0-.9-.2-1.5-.4-2s-.5-1-1-1.5-.9-.7-1.5-1c-.5-.2-1.1-.3-2-.4z"></path><path fill="#fff" d="M16 12.45c-2.4 0-4.3 1.9-4.3 4.3s1.9 4.3 4.3 4.3 4.3-1.9 4.3-4.3-1.9-4.3-4.3-4.3m0 7.1c-1.5 0-2.8-1.2-2.8-2.8 0-1.5 1.2-2.8 2.8-2.8 1.5 0 2.8 1.2 2.8 2.8 0 1.5-1.3 2.8-2.8 2.8M20.4 13.35a1 1 0 1 0 0-2 1 1 0 0 0 0 2"></path></svg>